<svg width="123" height="30" viewBox="0 0 123 30" fill="none" xmlns="http://www.w3.org/2000/svg">
<path d="M16.7891 1.07031C17.2344 1.09375 17.7148 1.10547 18.2305 1.10547C18.6758 1.10547 19.1797 1.11719 19.7422 1.14062C20.3281 1.14062 20.9375 1.11719 21.5703 1.07031C21.0078 1.32813 20.5156 1.70312 20.0938 2.19531C19.6719 2.6875 19.332 3.17969 19.0742 3.67188C18.7461 4.25781 18.4766 4.86719 18.2656 5.5C18.1484 5.875 18.0547 6.54297 17.9844 7.50391C17.9141 8.44141 17.8555 9.54297 17.8086 10.8086C17.7852 12.0742 17.7734 13.4102 17.7734 14.8164C17.7734 16.2227 17.7852 17.5703 17.8086 18.8594C17.832 20.125 17.8672 21.25 17.9141 22.2344C17.9609 23.2188 18.0195 23.9102 18.0898 24.3086C18.1836 24.7773 18.3008 25.2227 18.4414 25.6445C18.5586 26.0195 18.7109 26.4062 18.8984 26.8047C19.0859 27.1797 19.3203 27.4844 19.6016 27.7188L16.0156 29.3359C15.8281 29.0781 15.6758 28.8086 15.5586 28.5273C15.4414 28.2695 15.3477 28.0352 15.2773 27.8242C15.1836 27.5664 15.125 27.332 15.1016 27.1211C15.0547 26.8398 15.0078 26.5352 14.9609 26.207C14.9141 25.8555 14.8555 25.5273 14.7852 25.2227C14.7383 24.8945 14.7031 24.625 14.6797 24.4141C14.6562 24.2031 14.6562 24.0742 14.6797 24.0273C14.7031 23.9805 14.5625 24.1914 14.2578 24.6602C13.9531 25.1055 13.4961 25.6328 12.8867 26.2422C12.3008 26.8281 11.5742 27.4023 10.707 27.9648C9.83984 28.5039 8.86719 28.8438 7.78906 28.9844C6.6875 29.125 5.66797 28.9141 4.73047 28.3516C3.81641 27.7891 3.03125 27.0039 2.375 25.9961C1.71875 24.9648 1.21484 23.7812 0.863281 22.4453C0.535156 21.0859 0.40625 19.7031 0.476562 18.2969C0.523438 17.3594 0.734375 16.5273 1.10938 15.8008C1.48438 15.0508 1.95312 14.4062 2.51562 13.8672C3.10156 13.3047 3.73438 12.8359 4.41406 12.4609C5.11719 12.0625 5.79688 11.7344 6.45312 11.4766C7.13281 11.2188 7.76562 11.0312 8.35156 10.9141C8.9375 10.7969 9.40625 10.7148 9.75781 10.668C10.1797 10.6445 10.6602 10.7148 11.1992 10.8789C11.668 11.0195 12.207 11.2539 12.8164 11.582C13.4492 11.9102 14.1523 12.4023 14.9258 13.0586C14.7852 10.7148 14.6562 8.83984 14.5391 7.43359C14.4219 6.00391 14.3047 4.91406 14.1875 4.16406C14.0703 3.27344 13.9648 2.66406 13.8711 2.33594C13.7539 2.10156 13.6016 1.86719 13.4141 1.63281C13.25 1.44531 13.0391 1.25781 12.7812 1.07031C12.5469 0.859375 12.2656 0.695313 11.9375 0.578125C12.5469 0.695313 13.1328 0.777344 13.6953 0.824219C14.2578 0.871094 14.7734 0.917969 15.2422 0.964844C15.7812 1.01172 16.2969 1.04688 16.7891 1.07031ZM7.96484 14.1836C7.51953 14.3477 7.15625 14.6289 6.875 15.0273C6.61719 15.4258 6.40625 15.9062 6.24219 16.4688C6.07812 17.0078 5.96094 17.5938 5.89062 18.2266C5.84375 18.8359 5.80859 19.4336 5.78516 20.0195C5.78516 20.582 5.78516 21.0977 5.78516 21.5664C5.78516 22.0352 5.78516 22.3867 5.78516 22.6211C5.78516 22.7617 5.80859 23.0195 5.85547 23.3945C5.92578 23.7461 6.06641 24.1211 6.27734 24.5195C6.48828 24.8945 6.78125 25.2344 7.15625 25.5391C7.55469 25.8438 8.08203 25.9961 8.73828 25.9961C9.27734 25.9492 9.85156 25.7617 10.4609 25.4336C11 25.1523 11.6094 24.707 12.2891 24.0977C12.9922 23.4648 13.7422 22.5625 14.5391 21.3906C14.4922 20.6406 14.457 20.0195 14.4336 19.5273C14.4336 19.0352 14.4219 18.6367 14.3984 18.332C14.375 17.9805 14.3633 17.6992 14.3633 17.4883V16.9609C14.3633 16.8203 14.3633 16.668 14.3633 16.5039C14.3633 16.3398 14.375 16.1875 14.3984 16.0469C13.7422 15.5781 13.1562 15.1797 12.6406 14.8516C12.1484 14.5 11.6562 14.2422 11.1641 14.0781C10.6953 13.8906 10.2031 13.8086 9.6875 13.832C9.19531 13.832 8.62109 13.9492 7.96484 14.1836ZM20.4805 11.1602C20.9258 11.1836 21.3242 11.1953 21.6758 11.1953C22.0508 11.1719 22.3672 11.1484 22.625 11.125C22.9297 11.1016 23.1992 11.0781 23.4336 11.0547C23.7852 11.0078 24.1484 10.9492 24.5234 10.8789C24.8516 10.832 25.1914 10.7734 25.543 10.7031C25.918 10.6094 26.2812 10.5039 26.6328 10.3867C26.4922 10.7383 26.375 11.043 26.2812 11.3008C26.1875 11.5586 26.1172 11.7812 26.0703 11.9688C26 12.1797 25.9648 12.3555 25.9648 12.4961C25.9414 12.6602 25.9297 12.8594 25.9297 13.0938C25.9062 13.4922 25.9062 14.1367 25.9297 15.0273C27.1484 13.9727 28.168 13.1523 28.9883 12.5664C29.832 11.9805 30.5 11.5234 30.9922 11.1953C31.5781 10.8203 32.0352 10.5742 32.3633 10.457C33.2305 10.3164 33.9922 10.5156 34.6484 11.0547C34.9297 11.2891 35.1992 11.6055 35.457 12.0039C35.7148 12.3789 35.9375 12.8828 36.125 13.5156C36.3125 14.1484 36.4531 14.9102 36.5469 15.8008C36.6406 16.668 36.6523 17.7109 36.582 18.9297C36.0898 18.9766 35.6445 19.0234 35.2461 19.0703C34.8711 19.1172 34.5547 19.1523 34.2969 19.1758C33.9922 19.2227 33.7109 19.2461 33.4531 19.2461L32.5039 19.3516C32.1758 19.3984 31.7656 19.4453 31.2734 19.4922C30.8047 19.5156 30.2305 19.5625 29.5508 19.6328C30.5352 18.8359 31.168 18.1445 31.4492 17.5586C31.7539 16.9492 31.8828 16.4453 31.8359 16.0469C31.7891 15.6016 31.5781 15.2148 31.2031 14.8867C30.7578 14.6289 30.2773 14.5352 29.7617 14.6055C29.3164 14.6523 28.8008 14.8516 28.2148 15.2031C27.6289 15.5547 27.0078 16.2109 26.3516 17.1719C26.3984 18.6719 26.4453 19.9141 26.4922 20.8984C26.5625 21.8828 26.6211 22.6797 26.668 23.2891C26.7383 23.9922 26.7969 24.543 26.8438 24.9414C26.9141 25.293 27.0547 25.668 27.2656 26.0664C27.4297 26.3945 27.6641 26.7578 27.9688 27.1562C28.2734 27.5547 28.6719 27.9531 29.1641 28.3516C28.1328 28.3047 27.2891 28.3047 26.6328 28.3516C26.2344 28.375 25.8828 28.3984 25.5781 28.4219C25.25 28.4688 24.8984 28.5156 24.5234 28.5625C24.1953 28.6094 23.8086 28.6562 23.3633 28.7031C22.9414 28.7734 22.4727 28.8438 21.957 28.9141C22.1445 28.6562 22.2969 28.3516 22.4141 28C22.5312 27.6719 22.625 27.3555 22.6953 27.0508C22.7891 26.6992 22.8594 26.3359 22.9062 25.9609C22.9297 25.6328 22.9414 25.1406 22.9414 24.4844C22.9648 23.8281 22.9531 23.0898 22.9062 22.2695C22.8828 21.4258 22.8477 20.5586 22.8008 19.668C22.7539 18.7539 22.6953 17.8984 22.625 17.1016C22.5547 16.3047 22.4727 15.6133 22.3789 15.0273C22.3086 14.418 22.2266 13.9961 22.1328 13.7617C22.0156 13.4805 21.875 13.1992 21.7109 12.918C21.5703 12.6602 21.3945 12.3906 21.1836 12.1094C20.9727 11.8047 20.7383 11.4883 20.4805 11.1602ZM47.1992 22.3398C47.8555 22.3398 48.4648 22.2695 49.0273 22.1289C49.4961 22.0117 49.9414 21.8242 50.3633 21.5664C50.8086 21.2852 51.1016 20.875 51.2422 20.3359C51.7109 20.4297 52.1094 20.5117 52.4375 20.582C52.7656 20.6289 53.0469 20.6758 53.2812 20.7227C53.5391 20.793 53.7617 20.8398 53.9492 20.8633C54.1367 20.9102 54.3594 20.957 54.6172 21.0039C54.8516 21.0508 55.1328 21.1094 55.4609 21.1797C55.8125 21.2266 56.2227 21.2969 56.6914 21.3906C56.3398 21.3438 55.9766 21.3789 55.6016 21.4961C55.25 21.6133 54.9102 21.7422 54.582 21.8828C54.207 22.0469 53.8555 22.2461 53.5273 22.4805C53.3164 22.6211 53.0703 22.832 52.7891 23.1133C52.5312 23.3945 52.1562 23.6641 51.6641 23.9219C51.1719 24.1797 50.5156 24.4023 49.6953 24.5898C48.8984 24.7539 47.8672 24.8125 46.6016 24.7656C45.0781 24.7188 43.8008 24.4492 42.7695 23.957C41.7383 23.4414 40.9062 22.8203 40.2734 22.0938C39.6406 21.3438 39.1836 20.5352 38.9023 19.668C38.6211 18.8008 38.4688 17.9922 38.4453 17.2422C38.4219 16.4922 38.6445 15.707 39.1133 14.8867C39.582 14.0664 40.2383 13.3164 41.082 12.6367C41.9492 11.957 42.9922 11.4062 44.2109 10.9844C45.4297 10.5391 46.7656 10.3164 48.2188 10.3164C49.0625 10.3164 49.8359 10.4219 50.5391 10.6328C51.2656 10.8203 51.9219 11.0781 52.5078 11.4062C53.1172 11.7344 53.6445 12.1094 54.0898 12.5312C54.5352 12.9297 54.9102 13.3398 55.2148 13.7617C55.5195 14.207 55.7773 14.6758 55.9883 15.168C56.1758 15.5898 56.3281 16.0703 56.4453 16.6094C56.5625 17.1484 56.5977 17.6992 56.5508 18.2617C54.7695 18.3086 53.3281 18.3438 52.2266 18.3672C51.1484 18.3906 50.3047 18.4023 49.6953 18.4023H48.1133H46.918C46.4961 18.4023 45.9453 18.4141 45.2656 18.4375C44.5859 18.4609 43.7539 18.4961 42.7695 18.543C42.8867 19.4805 43.1797 20.207 43.6484 20.7227C44.1406 21.2148 44.6562 21.5898 45.1953 21.8477C45.8047 22.1289 46.4727 22.293 47.1992 22.3398ZM44.0352 16.0117C44.7852 16.0586 45.4062 16.0938 45.8984 16.1172C46.4141 16.1406 46.8359 16.1641 47.1641 16.1875C47.5156 16.2109 47.7969 16.2227 48.0078 16.2227H48.8867C49.4727 16.2227 50.5625 16.1875 52.1562 16.1172C52.0859 15.0859 51.8633 14.3008 51.4883 13.7617C51.1367 13.2227 50.7617 12.8242 50.3633 12.5664C49.8945 12.2852 49.3789 12.1211 48.8164 12.0742C47.293 12.0977 46.1562 12.4141 45.4062 13.0234C44.6797 13.6328 44.2227 14.6289 44.0352 16.0117ZM73.4609 7.92578C73.25 8.44141 73.0625 8.91016 72.8984 9.33203C72.7578 9.75391 72.6289 10.1289 72.5117 10.457C72.3945 10.832 72.2891 11.1602 72.1953 11.4414C72.1016 11.7695 71.9961 12.1445 71.8789 12.5664C71.7617 12.9414 71.6094 13.4102 71.4219 13.9727C71.2578 14.5117 71.0586 15.1562 70.8242 15.9062C70.6367 14.7812 70.2969 13.8906 69.8047 13.2344C69.3125 12.5547 68.8086 12.0273 68.293 11.6523C67.6836 11.2305 67.0273 10.9258 66.3242 10.7383C65.0586 10.5273 64.1445 10.5508 63.582 10.8086C63.0195 11.0664 62.6445 11.3945 62.457 11.793C62.3633 11.957 62.2578 12.168 62.1406 12.4258C62.0469 12.6602 61.9648 12.9062 61.8945 13.1641C61.8477 13.4219 61.8359 13.6797 61.8594 13.9375C61.8828 14.1953 61.9883 14.4062 62.1758 14.5703C62.293 14.6875 62.5977 14.8516 63.0898 15.0625C63.582 15.25 64.168 15.4727 64.8477 15.7305C65.5508 15.9648 66.2891 16.2227 67.0625 16.5039C67.8594 16.7852 68.6094 17.0664 69.3125 17.3477C70.0156 17.6289 70.625 17.9102 71.1406 18.1914C71.6562 18.4727 71.9961 18.7305 72.1602 18.9648C72.3008 19.1992 72.4531 19.5156 72.6172 19.9141C72.8047 20.2891 72.9336 20.7109 73.0039 21.1797C73.0977 21.625 73.1211 22.0938 73.0742 22.5859C73.0508 23.0547 72.9219 23.5234 72.6875 23.9922C72.4531 24.4609 72.0781 24.8945 71.5625 25.293C71.0703 25.6914 70.4023 26.0195 69.5586 26.2773C68.5742 26.582 67.625 26.6641 66.7109 26.5234C65.7969 26.3828 64.9531 26.1719 64.1797 25.8906C63.4297 25.6094 62.7734 25.3398 62.2109 25.082C61.6484 24.8008 61.25 24.6836 61.0156 24.7305C60.7578 24.7773 60.4648 24.9062 60.1367 25.1172C59.8086 25.3281 59.4922 25.5508 59.1875 25.7852C58.9062 25.9961 58.6602 26.1953 58.4492 26.3828C58.2383 26.5469 58.1328 26.6055 58.1328 26.5586C58.1328 26.5117 58.168 26.3711 58.2383 26.1367C58.332 25.9023 58.4258 25.6211 58.5195 25.293C58.6367 24.9414 58.7422 24.5664 58.8359 24.168C58.9531 23.7461 59.0352 23.3477 59.082 22.9727C59.1289 22.668 59.1875 22.293 59.2578 21.8477C59.3047 21.4492 59.3633 20.9688 59.4336 20.4062C59.5273 19.8203 59.6328 19.1172 59.75 18.2969C59.8672 18.9062 60.0312 19.4336 60.2422 19.8789C60.4766 20.3242 60.6992 20.7109 60.9102 21.0391C61.168 21.4141 61.4141 21.7305 61.6484 21.9883C62 22.3164 62.4102 22.6211 62.8789 22.9023C63.3711 23.1836 63.8633 23.4297 64.3555 23.6406C64.8477 23.8281 65.3164 23.9453 65.7617 23.9922C66.207 24.0391 66.582 23.9922 66.8867 23.8516C67.1914 23.7109 67.4492 23.4531 67.6602 23.0781C67.8945 22.7031 68.0586 22.293 68.1523 21.8477C68.2461 21.4023 68.2812 20.9805 68.2578 20.582C68.2344 20.1602 68.1289 19.8203 67.9414 19.5625C67.8008 19.3984 67.4727 19.1875 66.957 18.9297C66.4648 18.6719 65.8672 18.3906 65.1641 18.0859C64.4844 17.7812 63.7578 17.4648 62.9844 17.1367C62.2344 16.8086 61.5195 16.4805 60.8398 16.1523C60.1836 15.8008 59.6328 15.4727 59.1875 15.168C58.7656 14.8398 58.5312 14.5469 58.4844 14.2891C58.4375 13.9141 58.4023 13.5039 58.3789 13.0586C58.3555 12.5898 58.3789 12.1328 58.4492 11.6875C58.543 11.2188 58.707 10.7734 58.9414 10.3516C59.1992 9.92969 59.5742 9.57812 60.0664 9.29688C60.3945 9.10938 60.8281 8.96875 61.3672 8.875C61.9062 8.78125 62.5039 8.73438 63.1602 8.73438C63.8164 8.71094 64.4961 8.73438 65.1992 8.80469C65.9023 8.85156 66.5703 8.92188 67.2031 9.01562C67.8594 9.08594 68.4453 9.17969 68.9609 9.29688C69.5 9.41406 69.9102 9.51953 70.1914 9.61328C70.5195 9.73047 70.8711 9.74219 71.2461 9.64844C71.5742 9.57812 71.9258 9.42578 72.3008 9.19141C72.6758 8.95703 73.0625 8.53516 73.4609 7.92578ZM90.2305 7.92578C90.0195 8.44141 89.832 8.91016 89.668 9.33203C89.5273 9.75391 89.3984 10.1289 89.2812 10.457C89.1641 10.832 89.0586 11.1602 88.9648 11.4414C88.8711 11.7695 88.7656 12.1445 88.6484 12.5664C88.5312 12.9414 88.3789 13.4102 88.1914 13.9727C88.0273 14.5117 87.8281 15.1562 87.5938 15.9062C87.4062 14.7812 87.0664 13.8906 86.5742 13.2344C86.082 12.5547 85.5781 12.0273 85.0625 11.6523C84.4531 11.2305 83.7969 10.9258 83.0938 10.7383C81.8281 10.5273 80.9141 10.5508 80.3516 10.8086C79.7891 11.0664 79.4141 11.3945 79.2266 11.793C79.1328 11.957 79.0273 12.168 78.9102 12.4258C78.8164 12.6602 78.7344 12.9062 78.6641 13.1641C78.6172 13.4219 78.6055 13.6797 78.6289 13.9375C78.6523 14.1953 78.7578 14.4062 78.9453 14.5703C79.0625 14.6875 79.3672 14.8516 79.8594 15.0625C80.3516 15.25 80.9375 15.4727 81.6172 15.7305C82.3203 15.9648 83.0586 16.2227 83.832 16.5039C84.6289 16.7852 85.3789 17.0664 86.082 17.3477C86.7852 17.6289 87.3945 17.9102 87.9102 18.1914C88.4258 18.4727 88.7656 18.7305 88.9297 18.9648C89.0703 19.1992 89.2227 19.5156 89.3867 19.9141C89.5742 20.2891 89.7031 20.7109 89.7734 21.1797C89.8672 21.625 89.8906 22.0938 89.8438 22.5859C89.8203 23.0547 89.6914 23.5234 89.457 23.9922C89.2227 24.4609 88.8477 24.8945 88.332 25.293C87.8398 25.6914 87.1719 26.0195 86.3281 26.2773C85.3438 26.582 84.3945 26.6641 83.4805 26.5234C82.5664 26.3828 81.7227 26.1719 80.9492 25.8906C80.1992 25.6094 79.543 25.3398 78.9805 25.082C78.418 24.8008 78.0195 24.6836 77.7852 24.7305C77.5273 24.7773 77.2344 24.9062 76.9062 25.1172C76.5781 25.3281 76.2617 25.5508 75.957 25.7852C75.6758 25.9961 75.4297 26.1953 75.2188 26.3828C75.0078 26.5469 74.9023 26.6055 74.9023 26.5586C74.9023 26.5117 74.9375 26.3711 75.0078 26.1367C75.1016 25.9023 75.1953 25.6211 75.2891 25.293C75.4062 24.9414 75.5117 24.5664 75.6055 24.168C75.7227 23.7461 75.8047 23.3477 75.8516 22.9727C75.8984 22.668 75.957 22.293 76.0273 21.8477C76.0742 21.4492 76.1328 20.9688 76.2031 20.4062C76.2969 19.8203 76.4023 19.1172 76.5195 18.2969C76.6367 18.9062 76.8008 19.4336 77.0117 19.8789C77.2461 20.3242 77.4688 20.7109 77.6797 21.0391C77.9375 21.4141 78.1836 21.7305 78.418 21.9883C78.7695 22.3164 79.1797 22.6211 79.6484 22.9023C80.1406 23.1836 80.6328 23.4297 81.125 23.6406C81.6172 23.8281 82.0859 23.9453 82.5312 23.9922C82.9766 24.0391 83.3516 23.9922 83.6562 23.8516C83.9609 23.7109 84.2188 23.4531 84.4297 23.0781C84.6641 22.7031 84.8281 22.293 84.9219 21.8477C85.0156 21.4023 85.0508 20.9805 85.0273 20.582C85.0039 20.1602 84.8984 19.8203 84.7109 19.5625C84.5703 19.3984 84.2422 19.1875 83.7266 18.9297C83.2344 18.6719 82.6367 18.3906 81.9336 18.0859C81.2539 17.7812 80.5273 17.4648 79.7539 17.1367C79.0039 16.8086 78.2891 16.4805 77.6094 16.1523C76.9531 15.8008 76.4023 15.4727 75.957 15.168C75.5352 14.8398 75.3008 14.5469 75.2539 14.2891C75.207 13.9141 75.1719 13.5039 75.1484 13.0586C75.125 12.5898 75.1484 12.1328 75.2188 11.6875C75.3125 11.2188 75.4766 10.7734 75.7109 10.3516C75.9688 9.92969 76.3438 9.57812 76.8359 9.29688C77.1641 9.10938 77.5977 8.96875 78.1367 8.875C78.6758 8.78125 79.2734 8.73438 79.9297 8.73438C80.5859 8.71094 81.2656 8.73438 81.9688 8.80469C82.6719 8.85156 83.3398 8.92188 83.9727 9.01562C84.6289 9.08594 85.2148 9.17969 85.7305 9.29688C86.2695 9.41406 86.6797 9.51953 86.9609 9.61328C87.2891 9.73047 87.6406 9.74219 88.0156 9.64844C88.3438 9.57812 88.6953 9.42578 89.0703 9.19141C89.4453 8.95703 89.832 8.53516 90.2305 7.92578ZM96.6641 4.19922C97.8359 4.26953 98.8203 4.32812 99.6172 4.375C100.438 4.39844 101.117 4.42188 101.656 4.44531C102.266 4.46875 102.781 4.46875 103.203 4.44531C103.625 4.42188 104.199 4.36328 104.926 4.26953C105.535 4.19922 106.344 4.09375 107.352 3.95312C108.383 3.78906 109.66 3.57813 111.184 3.32031C110.645 3.85938 110.223 4.35156 109.918 4.79688C109.637 5.21875 109.414 5.58203 109.25 5.88672C109.062 6.26172 108.934 6.57812 108.863 6.83594C108.816 7.07031 108.863 7.65625 109.004 8.59375C109.145 9.53125 109.344 10.6445 109.602 11.9336C109.859 13.1992 110.141 14.5586 110.445 16.0117C110.75 17.4414 111.055 18.7891 111.359 20.0547C111.664 21.2969 111.934 22.3633 112.168 23.2539C112.426 24.1211 112.613 24.6367 112.73 24.8008C113.082 25.293 113.305 25.6211 113.398 25.7852C113.492 25.9258 113.656 26.0547 113.891 26.1719C113.984 26.2188 114.137 26.2891 114.348 26.3828C114.535 26.4766 114.781 26.5938 115.086 26.7344C115.414 26.875 115.824 27.0391 116.316 27.2266C115.402 27.2734 114.617 27.3086 113.961 27.332C113.305 27.332 112.766 27.3438 112.344 27.3672C111.852 27.3906 111.43 27.4141 111.078 27.4375C110.727 27.4375 110.305 27.4609 109.812 27.5078C109.391 27.5547 108.84 27.6016 108.16 27.6484C107.504 27.6953 106.73 27.7422 105.84 27.7891C106.309 27.4609 106.684 27.168 106.965 26.9102C107.27 26.6289 107.504 26.3945 107.668 26.207C107.855 25.9727 107.984 25.7617 108.055 25.5742C108.102 25.3633 108.137 25.0469 108.16 24.625C108.184 24.25 108.184 23.7578 108.16 23.1484C108.137 22.5156 108.078 21.6953 107.984 20.6875L98.7383 21.6367C98.5039 22.0352 98.3281 22.3867 98.2109 22.6914C98.0938 22.9727 98.0117 23.2188 97.9648 23.4297C97.8945 23.6875 97.8711 23.8984 97.8945 24.0625C97.9414 24.25 98.0234 24.4727 98.1406 24.7305C98.2578 24.9648 98.4219 25.2461 98.6328 25.5742C98.8672 25.8789 99.207 26.2422 99.6523 26.6641C99.0664 26.6406 98.4688 26.6289 97.8594 26.6289C97.25 26.6289 96.6875 26.6406 96.1719 26.6641C95.5625 26.6875 94.9648 26.7109 94.3789 26.7344C93.793 26.7578 93.125 26.793 92.375 26.8398C91.7422 26.8867 91.0039 26.9453 90.1602 27.0156C89.293 27.0625 88.3672 27.1328 87.3828 27.2266C87.9922 26.9453 88.5078 26.6641 88.9297 26.3828C89.3516 26.0781 89.7031 25.7969 89.9844 25.5391C90.3125 25.2578 90.5938 24.9883 90.8281 24.7305C90.9922 24.4961 91.3203 23.957 91.8125 23.1133C92.3047 22.2461 92.8555 21.2266 93.4648 20.0547C94.0977 18.8828 94.7539 17.6289 95.4336 16.293C96.1367 14.957 96.7695 13.7031 97.332 12.5312C97.8945 11.3359 98.3516 10.3047 98.7031 9.4375C99.0547 8.57031 99.2305 8.00781 99.2305 7.75C99.1836 7.44531 99.0664 7.10547 98.8789 6.73047C98.7148 6.40234 98.457 6.02734 98.1055 5.60547C97.7773 5.18359 97.2969 4.71484 96.6641 4.19922ZM107.562 18.0859C107.422 17.2656 107.293 16.5625 107.176 15.9766C107.059 15.3672 106.965 14.8633 106.895 14.4648C106.801 13.9961 106.73 13.5859 106.684 13.2344C106.613 12.9062 106.531 12.4844 106.438 11.9688C106.344 11.5234 106.227 10.9727 106.086 10.3164C105.969 9.63672 105.816 8.82812 105.629 7.89062C104.293 10.5625 103.25 12.6367 102.5 14.1133C101.773 15.5664 101.246 16.6328 100.918 17.3125C100.52 18.1094 100.297 18.5781 100.25 18.7188L107.562 18.0859ZM115.016 12.2852L121.484 12.3555C121.109 13.7852 120.828 15.0039 120.641 16.0117C120.477 17.0195 120.371 17.8633 120.324 18.543C120.23 19.3164 120.207 19.9727 120.254 20.5117C120.324 21.0039 120.441 21.5312 120.605 22.0938C120.746 22.5625 120.957 23.1016 121.238 23.7109C121.52 24.3203 121.895 24.9297 122.363 25.5391C122.082 25.4453 121.777 25.375 121.449 25.3281C121.121 25.2812 120.816 25.2461 120.535 25.2227C120.207 25.1992 119.879 25.1992 119.551 25.2227C119.223 25.2461 118.859 25.2812 118.461 25.3281C118.133 25.375 117.734 25.4336 117.266 25.5039C116.797 25.5742 116.305 25.668 115.789 25.7852C116.141 24.7305 116.41 23.8164 116.598 23.043C116.809 22.2695 116.961 21.625 117.055 21.1094C117.148 20.5 117.207 20.0078 117.23 19.6328C117.23 19.1641 117.23 18.6367 117.23 18.0508C117.23 17.4414 117.23 16.8555 117.23 16.293C117.23 15.7305 117.219 15.2383 117.195 14.8164C117.172 14.3711 117.125 14.0898 117.055 13.9727L116.703 13.6211C116.562 13.5039 116.352 13.3398 116.07 13.1289C115.812 12.8945 115.461 12.6133 115.016 12.2852ZM117.512 6.87109C118.004 6.61328 118.496 6.54297 118.988 6.66016C119.504 6.77734 119.902 7 120.184 7.32812C120.465 7.65625 120.559 8.04297 120.465 8.48828C120.395 8.93359 120.02 9.36719 119.34 9.78906C118.66 10.1875 118.062 10.3281 117.547 10.2109C117.031 10.0938 116.668 9.84766 116.457 9.47266C116.246 9.09766 116.211 8.66406 116.352 8.17188C116.492 7.65625 116.879 7.22266 117.512 6.87109Z" fill="#893101"/>
</svg>
