<svg width="55" height="54" viewBox="0 0 55 54" fill="none" xmlns="http://www.w3.org/2000/svg">
<path d="M39.2013 9.01468L39.1704 12.6476C39.1683 12.8956 39.2755 13.1291 39.4665 13.2858C39.9053 13.6513 40.3283 14.0425 40.7304 14.4542C42.3976 16.1383 43.7207 18.1275 44.6267 20.3119C45.5656 22.5749 46.0365 25.0027 46.0112 27.4505C45.9901 29.9258 45.481 32.3195 44.5053 34.5645C43.5623 36.7331 42.2054 38.6995 40.5097 40.3549C38.8197 42.0134 36.8221 43.3302 34.6276 44.2326C32.3528 45.1693 29.9417 45.6294 27.4514 45.6082C24.9612 45.587 22.5583 45.0807 20.2997 44.1106C18.1188 43.1721 16.1598 41.8323 14.4845 40.1333C12.8092 38.4342 11.495 36.4643 10.5882 34.2756C9.6508 32.0143 9.18254 29.6123 9.20362 27.137C9.22471 24.6616 9.72862 22.2679 10.7096 20.023C11.6536 17.8501 13.0011 15.9028 14.7051 14.2325C15.1193 13.8278 15.5488 13.449 15.9887 13.0858C16.1823 12.9324 16.2935 12.6956 16.2956 12.4528L16.3266 8.81984C16.3293 8.49427 15.9671 8.28963 15.6901 8.46815C9.45931 12.379 5.29837 19.2792 5.25204 27.1602C5.17777 39.5423 15.2049 49.5557 27.6467 49.5376C39.891 49.5179 49.8584 39.6904 49.9623 27.4842C50.0293 19.624 45.9914 12.685 39.8437 8.67389C39.5697 8.49583 39.2041 8.68911 39.2013 9.01468ZM27.4756 4.32034L21.5904 11.6038C21.3697 11.8758 21.5639 12.2754 21.9122 12.2784L25.8633 12.312L25.7251 28.5387C25.7232 28.7661 25.9087 28.9537 26.1375 28.9557L29.0488 28.9805C29.2776 28.9824 29.4663 28.798 29.4683 28.5706L29.6065 12.3439L33.5576 12.3776C33.9059 12.3805 34.1069 11.9791 33.8908 11.7085L28.1306 4.32592C28.0921 4.27618 28.0428 4.23579 27.9862 4.20783C27.9297 4.17986 27.8676 4.16505 27.8044 4.16451C27.7413 4.16398 27.6789 4.17773 27.6219 4.20472C27.5649 4.23172 27.5149 4.27126 27.4756 4.32034Z" fill="#FC6A03"/>
</svg>
