<svg width="160" height="166" viewBox="0 0 160 166" fill="none" xmlns="http://www.w3.org/2000/svg">
<path d="M122.581 18.6373C105.475 18.6373 95.8528 31.0638 95.8528 37.2747C95.8528 31.0638 86.2307 18.6373 69.1247 18.6373C52.0187 18.6373 47.7422 31.0638 47.7422 37.2747C47.7422 69.8901 95.8528 93.1868 95.8528 93.1868C95.8528 93.1868 143.963 69.8901 143.963 37.2747C143.963 31.0638 139.687 18.6373 122.581 18.6373Z" fill="#FC6A03" stroke="#FC6A03" stroke-width="2" stroke-linecap="round" stroke-linejoin="round"/>
<path d="M67.8954 91.3347C55.1151 91.3347 47.9261 101.291 47.9261 106.268C47.9261 101.291 40.7372 91.3347 27.9569 91.3347C15.1765 91.3347 11.9814 101.291 11.9814 106.268C11.9814 132.401 47.9261 151.067 47.9261 151.067C47.9261 151.067 83.8708 132.401 83.8708 106.268C83.8708 101.291 80.6758 91.3347 67.8954 91.3347Z" fill="#893101" stroke="#893101" stroke-width="2" stroke-linecap="round" stroke-linejoin="round"/>
</svg>
